<svg width="102" height="18" viewBox="0 0 102 18" fill="none" xmlns="http://www.w3.org/2000/svg">
<path d="M62.7273 2.59L57.8643 17.063H54.4543L60.8293 0H63.0093L62.7273 2.59ZM66.7943 17.063L61.9073 2.59L61.6143 0H63.8063L70.2163 17.063H66.7943ZM66.5713 10.723V13.266H57.4193V10.723H66.5713ZM78.5363 10.84H74.1423V8.309H78.5363C79.2553 8.309 79.8363 8.191 80.2823 7.957C80.7353 7.715 81.0673 7.387 81.2783 6.973C81.4893 6.551 81.5953 6.07 81.5953 5.531C81.5953 5.008 81.4893 4.52 81.2783 4.066C81.0629 3.60827 80.7162 3.22499 80.2823 2.965C79.8373 2.684 79.2553 2.543 78.5363 2.543H75.1963V17.063H71.9743V0H78.5373C79.8653 0 80.9983 0.238 81.9363 0.715C82.8813 1.184 83.6003 1.835 84.0923 2.672C84.5923 3.5 84.8423 4.445 84.8423 5.508C84.8423 6.609 84.5923 7.558 84.0923 8.356C83.6003 9.152 82.8813 9.766 81.9363 10.196C80.9983 10.625 79.8653 10.84 78.5363 10.84ZM90.5953 0V17.063H87.3723V0H90.5953ZM100.837 0L93.9933 8.32L90.0793 12.504L89.5053 9.375L92.2243 5.848L96.8883 0H100.837ZM97.2513 17.063L91.9423 9.07L94.2513 6.984L101.083 17.062L97.2513 17.063ZM4.22627 9.892H5.10127C5.06286 10.2881 4.94011 10.6713 4.74128 11.016C4.54728 11.347 4.27127 11.61 3.91727 11.804C3.56127 11.995 3.11827 12.091 2.58727 12.091C2.19827 12.091 1.84528 12.018 1.52628 11.872C1.21257 11.7278 0.934349 11.5165 0.711275 11.253C0.474744 10.9665 0.295492 10.6372 0.183275 10.283C0.0570719 9.87303 -0.00466508 9.44593 0.000274574 9.017V8.357C0.000274574 7.893 0.0612751 7.472 0.183275 7.096C0.307275 6.716 0.485275 6.391 0.715275 6.121C0.949275 5.851 1.23028 5.643 1.55828 5.497C1.90747 5.34724 2.28437 5.27295 2.66427 5.279C3.16527 5.279 3.58927 5.373 3.93427 5.561C4.28127 5.749 4.55028 6.011 4.74128 6.344C4.93528 6.675 5.05527 7.059 5.10127 7.496H4.22627C4.19374 7.21912 4.11391 6.94987 3.99027 6.7C3.88146 6.48172 3.7102 6.30072 3.49828 6.18C3.28528 6.059 3.00827 5.998 2.66427 5.998C2.39529 5.99271 2.12882 6.0506 1.88627 6.167C1.66432 6.27963 1.47236 6.44348 1.32627 6.645C1.16922 6.86948 1.05497 7.12103 0.989275 7.387C0.910277 7.70079 0.871963 8.02344 0.875275 8.347V9.017C0.875275 9.342 0.908275 9.647 0.975275 9.933C1.04527 10.218 1.14927 10.468 1.28927 10.684C1.42927 10.899 1.60628 11.07 1.82228 11.194C2.03828 11.315 2.29227 11.376 2.58727 11.376C2.96027 11.376 3.25727 11.316 3.48027 11.198C3.70127 11.08 3.86827 10.91 3.98027 10.688C4.09627 10.467 4.17827 10.201 4.22627 9.892ZM8.14327 11.399C8.34327 11.399 8.52827 11.358 8.69827 11.276C8.86827 11.194 9.00828 11.082 9.11728 10.939C9.226 10.7951 9.29093 10.6229 9.30428 10.443H10.1053C10.0889 10.7379 9.98597 11.0214 9.80927 11.258C9.62419 11.5118 9.38245 11.719 9.10328 11.863C8.80664 12.0161 8.47707 12.0944 8.14327 12.091C7.8094 12.0985 7.47806 12.0315 7.17327 11.895C6.90734 11.7705 6.67338 11.5868 6.48927 11.358C6.30711 11.1242 6.16979 10.8588 6.08427 10.575C5.995 10.2687 5.95054 9.95106 5.95227 9.632V9.441C5.95227 9.11 5.99627 8.797 6.08427 8.503C6.17527 8.205 6.31027 7.943 6.48927 7.715C6.67227 7.487 6.89928 7.308 7.17228 7.178C7.44928 7.048 7.77227 6.982 8.14227 6.982C8.52827 6.982 8.86527 7.061 9.15327 7.219C9.44227 7.373 9.66828 7.586 9.83228 7.856C9.99928 8.123 10.0903 8.426 10.1053 8.766H9.30428C9.29161 8.57143 9.23227 8.38278 9.13128 8.216C9.02918 8.0464 8.88396 7.9069 8.71041 7.81169C8.53685 7.71648 8.34116 7.66897 8.14327 7.674C7.88427 7.674 7.66728 7.726 7.49128 7.829C7.31828 7.929 7.18127 8.066 7.07727 8.239C6.97727 8.409 6.90427 8.599 6.85827 8.808C6.81585 9.01632 6.79474 9.22841 6.79527 9.441V9.632C6.79527 9.848 6.81527 10.06 6.85827 10.27C6.90127 10.48 6.97228 10.669 7.07228 10.839C7.17628 11.009 7.31428 11.145 7.48728 11.249C7.66328 11.349 7.88227 11.399 8.14327 11.399ZM11.7453 8.767H13.2253C13.6223 8.767 13.9583 8.837 14.2313 8.977C14.5043 9.113 14.7113 9.303 14.8513 9.546C14.9933 9.786 15.0643 10.059 15.0643 10.366C15.0643 10.593 15.0243 10.806 14.9463 11.007C14.8677 11.2044 14.7465 11.382 14.5913 11.527C14.4247 11.6826 14.2275 11.8018 14.0123 11.877C13.7587 11.9632 13.4921 12.0048 13.2243 12H11.1303V7.073H11.9723V11.308H13.2243C13.4673 11.308 13.6623 11.264 13.8073 11.176C13.9446 11.097 14.0543 10.9776 14.1213 10.834C14.1847 10.697 14.2175 10.5479 14.2175 10.397C14.2175 10.2461 14.1847 10.097 14.1213 9.96C14.0539 9.81331 13.9446 9.6898 13.8073 9.605C13.6623 9.508 13.4673 9.459 13.2243 9.459H11.7443L11.7453 8.767ZM16.8173 7.073V12H15.9753V7.073H16.8173ZM21.5853 7.073V7.77H19.2033V7.073H21.5853ZM22.3273 7.073V12H21.4853V7.073H22.3273ZM18.9993 7.073H19.8453L19.7183 9.45C19.7014 9.77637 19.6664 10.1015 19.6133 10.424C19.5683 10.704 19.5043 10.944 19.4223 11.144C19.355 11.3258 19.2531 11.4929 19.1223 11.636C19.003 11.7607 18.856 11.8556 18.6933 11.913C18.5273 11.971 18.3333 12 18.1153 12H17.8513V11.258L18.0333 11.244C18.1496 11.2386 18.2634 11.2075 18.3663 11.153C18.4631 11.0984 18.5443 11.0199 18.6023 10.925C18.6663 10.822 18.7183 10.69 18.7573 10.529C18.8003 10.369 18.8323 10.177 18.8533 9.955C18.8773 9.734 18.8953 9.475 18.9073 9.181L18.9993 7.073ZM24.5993 7.073V12H23.7573V7.073H24.5993ZM27.8333 7.073L25.4973 9.896H24.3173L24.1903 9.158H25.1553L26.8083 7.073H27.8333ZM26.9263 12L25.1143 9.769L25.6563 9.159L27.9963 12H26.9263ZM31.6363 11.158V8.62C31.6363 8.426 31.5963 8.257 31.5163 8.115C31.44 7.96883 31.3192 7.85078 31.1713 7.778C30.992 7.69358 30.7953 7.6528 30.5973 7.659C30.3843 7.659 30.1973 7.696 30.0373 7.769C29.891 7.83267 29.7626 7.93121 29.6633 8.056C29.5784 8.16534 29.5321 8.29961 29.5313 8.438H28.6893C28.6893 8.262 28.7343 8.088 28.8253 7.914C28.9163 7.741 29.0473 7.584 29.2173 7.445C29.3903 7.303 29.5973 7.19 29.8373 7.108C30.0982 7.02028 30.372 6.97734 30.6473 6.981C31.0053 6.981 31.3213 7.041 31.5943 7.163C31.8703 7.284 32.0863 7.468 32.2413 7.714C32.3993 7.957 32.4773 8.262 32.4773 8.629V10.924C32.4773 11.088 32.4913 11.263 32.5183 11.448C32.5483 11.633 32.5933 11.793 32.6513 11.926V12H31.7713C31.7216 11.8758 31.688 11.7457 31.6713 11.613C31.6482 11.4624 31.6371 11.3103 31.6363 11.158ZM31.7813 9.013L31.7903 9.605H30.9383C30.6983 9.605 30.4853 9.625 30.2963 9.664C30.1301 9.69247 29.9701 9.7493 29.8233 9.832C29.7018 9.89918 29.601 9.99836 29.5319 10.1188C29.4628 10.2392 29.428 10.3762 29.4313 10.515C29.4313 10.67 29.4663 10.811 29.5363 10.939C29.6063 11.067 29.7103 11.169 29.8503 11.244C29.9933 11.317 30.1673 11.354 30.3743 11.354C30.5972 11.3569 30.8176 11.3072 31.0177 11.209C31.2179 11.1109 31.3921 10.967 31.5263 10.789C31.6338 10.6578 31.7003 10.4978 31.7173 10.329L32.0773 10.734C32.0468 10.885 31.9881 11.0288 31.9043 11.158C31.6827 11.5135 31.3564 11.7915 30.9703 11.954C30.7421 12.0483 30.4971 12.0949 30.2503 12.091C29.9173 12.091 29.6243 12.026 29.3723 11.895C29.1351 11.7753 28.934 11.5948 28.7893 11.372C28.6521 11.1487 28.581 10.8911 28.5843 10.629C28.5792 10.3879 28.6324 10.1492 28.7393 9.933C28.8423 9.729 28.9913 9.561 29.1853 9.427C29.3793 9.291 29.6133 9.187 29.8863 9.117C30.1861 9.04428 30.4938 9.00934 30.8023 9.013H31.7813ZM39.4583 9.209V9.892H36.8543V9.209H39.4583ZM37.0313 7.073V12H36.1893V7.073H37.0313ZM40.1413 7.073V12H39.2943V7.073H40.1413ZM44.4043 11.158V8.62C44.4043 8.426 44.3643 8.257 44.2853 8.115C44.2088 7.96868 44.0876 7.85061 43.9393 7.778C43.76 7.69358 43.5633 7.6528 43.3653 7.659C43.1533 7.659 42.9663 7.696 42.8053 7.769C42.6594 7.83281 42.5313 7.93134 42.4323 8.056C42.3474 8.16534 42.3011 8.29961 42.3003 8.438H41.4573C41.4573 8.262 41.5033 8.088 41.5943 7.914C41.6853 7.741 41.8163 7.584 41.9863 7.445C42.1708 7.29655 42.3804 7.18241 42.6053 7.108C42.8662 7.02028 43.14 6.97734 43.4153 6.981C43.7743 6.981 44.0903 7.041 44.3633 7.163C44.6393 7.284 44.8553 7.468 45.0093 7.714C45.1673 7.957 45.2463 8.262 45.2463 8.629V10.924C45.2463 11.088 45.2603 11.263 45.2873 11.448C45.3173 11.633 45.3623 11.793 45.4193 11.926V12H44.5403C44.4906 11.8758 44.457 11.7457 44.4403 11.613C44.4172 11.4624 44.4051 11.3103 44.4043 11.158ZM44.5493 9.013L44.5593 9.605H43.7073C43.4673 9.605 43.2533 9.625 43.0653 9.664C42.8988 9.69236 42.7385 9.74919 42.5913 9.832C42.4698 9.89918 42.369 9.99836 42.2999 10.1188C42.2308 10.2392 42.196 10.3762 42.1993 10.515C42.1981 10.6629 42.2342 10.8087 42.3043 10.939C42.3743 11.067 42.4793 11.169 42.6193 11.244C42.7613 11.317 42.9363 11.354 43.1423 11.354C43.3652 11.3569 43.5856 11.3072 43.7857 11.209C43.9859 11.1109 44.1601 10.967 44.2943 10.789C44.4022 10.6579 44.469 10.4979 44.4863 10.329L44.8463 10.734C44.8155 10.885 44.7565 11.0289 44.6723 11.158C44.4511 11.5134 44.1251 11.7915 43.7393 11.954C43.5111 12.0483 43.2661 12.0949 43.0193 12.091C42.6853 12.091 42.3923 12.026 42.1413 11.895C41.9042 11.7752 41.703 11.5948 41.5583 11.372C41.4211 11.1487 41.35 10.8911 41.3533 10.629C41.3479 10.388 41.4008 10.1493 41.5073 9.933C41.6113 9.729 41.7603 9.561 41.9543 9.427C42.1483 9.291 42.3823 9.187 42.6553 9.117C42.9548 9.04437 43.2621 9.00943 43.5703 9.013H44.5493Z" fill="white"/>
</svg>
