<svg width="135" height="38" viewBox="0 0 135 38" fill="none" xmlns="http://www.w3.org/2000/svg">
<g clip-path="url(#clip0_17_35)">
<path d="M130.2 38H4.7C2.1 38 0 36.005 0 33.535V4.465C0 1.995 2.1 0 4.7 0H130.2C132.8 0 135 1.995 135 4.465V33.44C135 36.005 132.8 38 130.2 38Z" fill="black"/>
<path d="M133.998 33.535C133.998 35.53 132.298 37.145 130.198 37.145H4.69801C2.59801 37.145 0.89801 35.53 0.89801 33.535V4.46501C0.89801 2.47001 2.59801 0.855011 4.69801 0.855011H130.198C132.298 0.855011 133.998 2.47001 133.998 4.46501V33.535Z" fill="black"/>
<path d="M79.273 12.59L74.41 27.063H71L77.375 10H79.555L79.273 12.59ZM83.34 27.063L78.453 12.59L78.16 10H80.352L86.762 27.063H83.34ZM83.117 20.723V23.266H73.965V20.723H83.117ZM95.082 20.84H90.688V18.309H95.082C95.801 18.309 96.382 18.191 96.828 17.957C97.281 17.715 97.613 17.387 97.824 16.973C98.035 16.551 98.141 16.07 98.141 15.531C98.141 15.008 98.035 14.52 97.824 14.066C97.6086 13.6083 97.2619 13.225 96.828 12.965C96.383 12.684 95.801 12.543 95.082 12.543H91.742V27.063H88.52V10H95.083C96.411 10 97.544 10.238 98.482 10.715C99.427 11.184 100.146 11.835 100.638 12.672C101.138 13.5 101.388 14.445 101.388 15.508C101.388 16.609 101.138 17.558 100.638 18.356C100.146 19.152 99.427 19.766 98.482 20.196C97.544 20.625 96.411 20.84 95.082 20.84ZM107.141 10V27.063H103.918V10H107.141ZM117.383 10L110.539 18.32L106.625 22.504L106.051 19.375L108.77 15.848L113.434 10H117.383ZM113.797 27.063L108.488 19.07L110.797 16.984L117.629 27.062L113.797 27.063ZM20.772 19.892H21.647C21.6086 20.2881 21.4858 20.6713 21.287 21.016C21.093 21.347 20.817 21.61 20.463 21.804C20.107 21.995 19.664 22.091 19.133 22.091C18.744 22.091 18.391 22.018 18.072 21.872C17.7583 21.7278 17.4801 21.5165 17.257 21.253C17.0205 20.9665 16.8412 20.6372 16.729 20.283C16.6028 19.873 16.5411 19.4459 16.546 19.017V18.357C16.546 17.893 16.607 17.472 16.729 17.096C16.853 16.716 17.031 16.391 17.261 16.121C17.495 15.851 17.776 15.643 18.104 15.497C18.4532 15.3472 18.8301 15.2729 19.21 15.279C19.711 15.279 20.135 15.373 20.48 15.561C20.827 15.749 21.096 16.011 21.287 16.344C21.481 16.675 21.601 17.059 21.647 17.496H20.772C20.7395 17.2191 20.6596 16.9499 20.536 16.7C20.4272 16.4817 20.2559 16.3007 20.044 16.18C19.831 16.059 19.554 15.998 19.21 15.998C18.941 15.9927 18.6745 16.0506 18.432 16.167C18.21 16.2796 18.0181 16.4435 17.872 16.645C17.7149 16.8695 17.6007 17.121 17.535 17.387C17.456 17.7008 17.4177 18.0234 17.421 18.347V19.017C17.421 19.342 17.454 19.647 17.521 19.933C17.591 20.218 17.695 20.468 17.835 20.684C17.975 20.899 18.152 21.07 18.368 21.194C18.584 21.315 18.838 21.376 19.133 21.376C19.506 21.376 19.803 21.316 20.026 21.198C20.247 21.08 20.414 20.91 20.526 20.688C20.642 20.467 20.724 20.201 20.772 19.892ZM24.689 21.399C24.889 21.399 25.074 21.358 25.244 21.276C25.414 21.194 25.554 21.082 25.663 20.939C25.7717 20.7951 25.8366 20.6229 25.85 20.443H26.651C26.6346 20.7379 26.5317 21.0214 26.355 21.258C26.1699 21.5118 25.9282 21.719 25.649 21.863C25.3524 22.0161 25.0228 22.0944 24.689 22.091C24.3551 22.0985 24.0238 22.0315 23.719 21.895C23.4531 21.7705 23.2191 21.5868 23.035 21.358C22.8528 21.1242 22.7155 20.8588 22.63 20.575C22.5407 20.2687 22.4963 19.9511 22.498 19.632V19.441C22.498 19.11 22.542 18.797 22.63 18.503C22.721 18.205 22.856 17.943 23.035 17.715C23.218 17.487 23.445 17.308 23.718 17.178C23.995 17.048 24.318 16.982 24.688 16.982C25.074 16.982 25.411 17.061 25.699 17.219C25.988 17.373 26.214 17.586 26.378 17.856C26.545 18.123 26.636 18.426 26.651 18.766H25.85C25.8373 18.5714 25.778 18.3828 25.677 18.216C25.5749 18.0464 25.4297 17.9069 25.2561 17.8117C25.0826 17.7165 24.8869 17.669 24.689 17.674C24.43 17.674 24.213 17.726 24.037 17.829C23.864 17.929 23.727 18.066 23.623 18.239C23.523 18.409 23.45 18.599 23.404 18.808C23.3616 19.0163 23.3405 19.2284 23.341 19.441V19.632C23.341 19.848 23.361 20.06 23.404 20.27C23.447 20.48 23.518 20.669 23.618 20.839C23.722 21.009 23.86 21.145 24.033 21.249C24.209 21.349 24.428 21.399 24.689 21.399ZM28.291 18.767H29.771C30.168 18.767 30.504 18.837 30.777 18.977C31.05 19.113 31.257 19.303 31.397 19.546C31.539 19.786 31.61 20.059 31.61 20.366C31.61 20.593 31.57 20.806 31.492 21.007C31.4135 21.2044 31.2922 21.382 31.137 21.527C30.9704 21.6826 30.7732 21.8018 30.558 21.877C30.3044 21.9632 30.0378 22.0048 29.77 22H27.676V17.073H28.518V21.308H29.77C30.013 21.308 30.208 21.264 30.353 21.176C30.4904 21.097 30.6 20.9776 30.667 20.834C30.7304 20.697 30.7633 20.5479 30.7633 20.397C30.7633 20.2461 30.7304 20.097 30.667 19.96C30.5996 19.8133 30.4904 19.6898 30.353 19.605C30.208 19.508 30.013 19.459 29.77 19.459H28.29L28.291 18.767ZM33.363 17.073V22H32.521V17.073H33.363ZM38.131 17.073V17.77H35.749V17.073H38.131ZM38.873 17.073V22H38.031V17.073H38.873ZM35.545 17.073H36.391L36.264 19.45C36.2471 19.7764 36.2121 20.1015 36.159 20.424C36.114 20.704 36.05 20.944 35.968 21.144C35.9007 21.3258 35.7988 21.4929 35.668 21.636C35.5487 21.7607 35.4017 21.8556 35.239 21.913C35.073 21.971 34.879 22 34.661 22H34.397V21.258L34.579 21.244C34.6953 21.2386 34.8091 21.2075 34.912 21.153C35.0088 21.0984 35.09 21.0199 35.148 20.925C35.212 20.822 35.264 20.69 35.303 20.529C35.346 20.369 35.378 20.177 35.399 19.955C35.423 19.734 35.441 19.475 35.453 19.181L35.545 17.073ZM41.145 17.073V22H40.303V17.073H41.145ZM44.379 17.073L42.043 19.896H40.863L40.736 19.158H41.701L43.354 17.073H44.379ZM43.472 22L41.66 19.769L42.202 19.159L44.542 22H43.472ZM48.182 21.158V18.62C48.182 18.426 48.142 18.257 48.062 18.115C47.9858 17.9688 47.8649 17.8508 47.717 17.778C47.5377 17.6936 47.341 17.6528 47.143 17.659C46.93 17.659 46.743 17.696 46.583 17.769C46.4367 17.8327 46.3083 17.9312 46.209 18.056C46.1242 18.1653 46.0778 18.2996 46.077 18.438H45.235C45.235 18.262 45.28 18.088 45.371 17.914C45.462 17.741 45.593 17.584 45.763 17.445C45.936 17.303 46.143 17.19 46.383 17.108C46.6439 17.0203 46.9178 16.9773 47.193 16.981C47.551 16.981 47.867 17.041 48.14 17.163C48.416 17.284 48.632 17.468 48.787 17.714C48.945 17.957 49.023 18.262 49.023 18.629V20.924C49.023 21.088 49.037 21.263 49.064 21.448C49.094 21.633 49.139 21.793 49.197 21.926V22H48.317C48.2673 21.8758 48.2337 21.7457 48.217 21.613C48.1939 21.4624 48.1829 21.3103 48.182 21.158ZM48.327 19.013L48.336 19.605H47.484C47.244 19.605 47.031 19.625 46.842 19.664C46.6759 19.6925 46.5159 19.7493 46.369 19.832C46.2475 19.8992 46.1467 19.9984 46.0776 20.1188C46.0085 20.2392 45.9737 20.3762 45.977 20.515C45.977 20.67 46.012 20.811 46.082 20.939C46.152 21.067 46.256 21.169 46.396 21.244C46.539 21.317 46.713 21.354 46.92 21.354C47.1429 21.3569 47.3633 21.3072 47.5634 21.209C47.7636 21.1109 47.9378 20.967 48.072 20.789C48.1795 20.6578 48.246 20.4978 48.263 20.329L48.623 20.734C48.5925 20.885 48.5338 21.0288 48.45 21.158C48.2284 21.5135 47.9021 21.7915 47.516 21.954C47.2878 22.0483 47.0428 22.0949 46.796 22.091C46.463 22.091 46.17 22.026 45.918 21.895C45.6809 21.7753 45.4797 21.5948 45.335 21.372C45.1978 21.1487 45.1267 20.8911 45.13 20.629C45.125 20.3879 45.1781 20.1492 45.285 19.933C45.388 19.729 45.537 19.561 45.731 19.427C45.925 19.291 46.159 19.187 46.432 19.117C46.7318 19.0443 47.0395 19.0093 47.348 19.013H48.327ZM56.004 19.209V19.892H53.4V19.209H56.004ZM53.577 17.073V22H52.735V17.073H53.577ZM56.687 17.073V22H55.84V17.073H56.687ZM60.95 21.158V18.62C60.95 18.426 60.91 18.257 60.831 18.115C60.7545 17.9687 60.6333 17.8506 60.485 17.778C60.3057 17.6936 60.109 17.6528 59.911 17.659C59.699 17.659 59.512 17.696 59.351 17.769C59.2051 17.8328 59.0771 17.9313 58.978 18.056C58.8932 18.1653 58.8468 18.2996 58.846 18.438H58.003C58.003 18.262 58.049 18.088 58.14 17.914C58.231 17.741 58.362 17.584 58.532 17.445C58.7165 17.2966 58.9262 17.1824 59.151 17.108C59.4119 17.0203 59.6858 16.9773 59.961 16.981C60.32 16.981 60.636 17.041 60.909 17.163C61.185 17.284 61.401 17.468 61.555 17.714C61.713 17.957 61.792 18.262 61.792 18.629V20.924C61.792 21.088 61.806 21.263 61.833 21.448C61.863 21.633 61.908 21.793 61.965 21.926V22H61.086C61.0363 21.8758 61.0027 21.7457 60.986 21.613C60.9629 21.4624 60.9509 21.3103 60.95 21.158ZM61.095 19.013L61.105 19.605H60.253C60.013 19.605 59.799 19.625 59.611 19.664C59.4445 19.6924 59.2842 19.7492 59.137 19.832C59.0155 19.8992 58.9147 19.9984 58.8456 20.1188C58.7765 20.2392 58.7417 20.3762 58.745 20.515C58.7438 20.6629 58.7799 20.8087 58.85 20.939C58.92 21.067 59.025 21.169 59.165 21.244C59.307 21.317 59.482 21.354 59.688 21.354C59.9109 21.3569 60.1313 21.3072 60.3314 21.209C60.5316 21.1109 60.7058 20.967 60.84 20.789C60.9479 20.6579 61.0147 20.4979 61.032 20.329L61.392 20.734C61.3612 20.885 61.3022 21.0289 61.218 21.158C60.9968 21.5134 60.6708 21.7915 60.285 21.954C60.0568 22.0483 59.8118 22.0949 59.565 22.091C59.231 22.091 58.938 22.026 58.687 21.895C58.4499 21.7752 58.2487 21.5948 58.104 21.372C57.9668 21.1487 57.8957 20.8911 57.899 20.629C57.8936 20.388 57.9465 20.1493 58.053 19.933C58.157 19.729 58.306 19.561 58.5 19.427C58.694 19.291 58.928 19.187 59.201 19.117C59.5005 19.0444 59.8078 19.0094 60.116 19.013H61.095Z" fill="white"/>
</g>
<defs>
<clipPath id="clip0_17_35">
<rect width="135" height="38" fill="white"/>
</clipPath>
</defs>
</svg>
