<svg width="135" height="38" viewBox="0 0 135 38" fill="none" xmlns="http://www.w3.org/2000/svg">
<g clip-path="url(#clip0_17_19)">
<path d="M130.2 38H4.7C2.1 38 0 36.005 0 33.535V4.465C0 1.995 2.1 0 4.7 0H130.2C132.8 0 135 1.995 135 4.465V33.44C135 36.005 132.8 38 130.2 38Z" fill="black"/>
<path d="M134 33.535C134 35.53 132.3 37.145 130.2 37.145H4.70002C2.60002 37.145 0.900024 35.53 0.900024 33.535V4.46501C0.900024 2.47001 2.60002 0.855011 4.70002 0.855011H130.2C132.3 0.855011 134 2.47001 134 4.46501V33.535Z" fill="black"/>
<path d="M30.1 18.81C30.1 15.77 32.7 14.25 32.9 14.155C31.4 12.065 29 11.78 28.2 11.78C26.2 11.59 24.3 12.92 23.3 12.92C22.3 12.92 20.7 11.78 19.1 11.875C17 11.875 15 13.11 13.9 14.915C11.6 18.62 13.3 24.13 15.5 27.17C16.6 28.69 17.9 30.305 19.5 30.21C21.1 30.115 21.7 29.26 23.7 29.26C25.6 29.26 26.2 30.21 27.9 30.21C29.6 30.21 30.7 28.69 31.8 27.265C33.1 25.555 33.6 23.94 33.6 23.845C33.5 23.655 30.2 22.42 30.1 18.81ZM26.9 9.78501C27.8 8.74001 28.4 7.31501 28.2 5.89001C26.9 5.98501 25.4 6.74501 24.4 7.69501C23.6 8.55001 22.9 10.07 23.1 11.4C24.6 11.59 26 10.83 26.9 9.78501ZM53.6 29.925H51.3L50.1 26.22H45.8L44.6 29.925H42.4L46.7 17.29H49.3L53.6 29.925ZM49.8 24.7L48.7 21.375C48.6 20.995 48.4 20.235 48 19C47.9 19.57 47.7 20.33 47.4 21.375L46.2 24.7H49.8ZM64.7 25.27C64.7 26.79 64.3 28.025 63.4 28.975C62.6 29.735 61.6 30.21 60.5 30.21C59.2 30.21 58.3 29.735 57.8 28.88V33.725H55.7V23.845C55.7 22.895 55.7 21.85 55.6 20.805H57.5L57.6 22.23C58.3 21.185 59.4 20.615 60.8 20.615C61.9 20.615 62.9 20.995 63.6 21.85C64.3 22.705 64.7 23.845 64.7 25.27ZM62.5 25.365C62.5 24.51 62.3 23.75 61.9 23.18C61.4 22.61 60.8 22.325 60 22.325C59.5 22.325 59 22.515 58.6 22.8C58.2 23.18 57.9 23.56 57.8 24.13C57.7 24.415 57.7 24.605 57.7 24.7V26.22C57.7 26.885 57.9 27.455 58.3 27.93C58.7 28.405 59.3 28.595 60 28.595C60.8 28.595 61.4 28.31 61.9 27.74C62.3 27.075 62.5 26.315 62.5 25.365ZM75.7 25.27C75.7 26.79 75.3 28.025 74.4 28.975C73.6 29.735 72.6 30.21 71.5 30.21C70.2 30.21 69.3 29.735 68.8 28.88V33.725H66.7V23.845C66.7 22.895 66.7 21.85 66.6 20.805H68.5L68.6 22.23C69.3 21.185 70.4 20.615 71.8 20.615C72.9 20.615 73.9 20.995 74.6 21.85C75.3 22.705 75.7 23.845 75.7 25.27ZM73.5 25.365C73.5 24.51 73.3 23.75 72.9 23.18C72.4 22.61 71.8 22.325 71 22.325C70.5 22.325 70 22.515 69.6 22.8C69.2 23.18 68.9 23.56 68.8 24.13C68.7 24.415 68.7 24.605 68.7 24.7V26.22C68.7 26.885 68.9 27.455 69.3 27.93C69.7 28.405 70.3 28.595 71 28.595C71.8 28.595 72.4 28.31 72.9 27.74C73.3 27.075 73.5 26.315 73.5 25.365ZM88 26.41C88 27.455 87.6 28.405 86.8 29.07C85.9 29.83 84.7 30.21 83.2 30.21C81.8 30.21 80.6 29.925 79.8 29.45L80.3 27.74C81.2 28.31 82.3 28.595 83.4 28.595C84.2 28.595 84.8 28.405 85.3 28.12C85.7 27.74 86 27.36 86 26.695C86 26.22 85.8 25.745 85.4 25.365C85 24.985 84.4 24.7 83.6 24.415C81.3 23.56 80.1 22.42 80.1 20.805C80.1 19.76 80.5 18.905 81.3 18.24C82.1 17.575 83.2 17.29 84.6 17.29C85.8 17.29 86.8 17.48 87.6 17.86L87 19.38C86.2 19 85.4 18.81 84.5 18.81C83.7 18.81 83.2 19 82.7 19.38C82.3 19.665 82.2 20.045 82.2 20.52C82.2 20.995 82.4 21.47 82.8 21.755C83.2 22.04 83.8 22.42 84.7 22.705C85.8 23.18 86.7 23.655 87.2 24.225C87.8 24.795 88 25.555 88 26.41ZM95.1 22.325H92.8V26.79C92.8 27.93 93.2 28.5 94 28.5C94.4 28.5 94.7 28.5 94.9 28.405L95 29.925C94.6 30.115 94 30.115 93.3 30.115C92.5 30.115 91.8 29.83 91.3 29.355C90.8 28.88 90.6 28.025 90.6 26.885V22.325H89.2V20.805H90.6V19.095L92.7 18.525V20.805H95L95.1 22.325ZM105.7 25.27C105.7 26.695 105.3 27.835 104.4 28.69C103.5 29.64 102.3 30.115 100.9 30.115C99.5 30.115 98.4 29.64 97.5 28.785C96.6 27.93 96.2 26.79 96.2 25.46C96.2 24.035 96.6 22.895 97.5 21.945C98.4 21.09 99.5 20.615 101 20.615C102.4 20.615 103.5 21.09 104.4 21.945C105.3 22.8 105.7 23.94 105.7 25.27ZM103.5 25.365C103.5 24.51 103.3 23.845 102.9 23.18C102.5 22.42 101.8 22.135 101 22.135C100.1 22.135 99.5 22.515 99 23.18C98.6 23.75 98.4 24.51 98.4 25.365C98.4 26.22 98.6 26.885 99 27.55C99.5 28.31 100.1 28.595 100.9 28.595C101.7 28.595 102.4 28.215 102.8 27.455C103.3 26.885 103.5 26.22 103.5 25.365ZM112.6 22.61C112.4 22.61 112.2 22.515 111.9 22.515C111.1 22.515 110.6 22.8 110.2 23.37C109.8 23.845 109.7 24.415 109.7 25.175V29.925H107.6V23.655C107.6 22.61 107.6 21.66 107.5 20.805H109.4L109.5 22.515H109.6C109.8 21.945 110.2 21.47 110.7 21.09C111.2 20.805 111.7 20.615 112.2 20.615H112.7L112.6 22.61ZM122.2 24.985C122.2 25.365 122.2 25.65 122.1 25.935H115.7C115.7 26.79 116 27.55 116.6 28.025C117.1 28.405 117.8 28.69 118.7 28.69C119.6 28.69 120.5 28.5 121.3 28.215L121.6 29.64C120.7 30.02 119.6 30.21 118.4 30.21C116.9 30.21 115.7 29.83 114.9 28.975C114.1 28.12 113.6 27.075 113.6 25.65C113.6 24.32 114 23.085 114.8 22.23C115.6 21.28 116.7 20.805 118.2 20.805C119.6 20.805 120.6 21.28 121.3 22.23C121.9 22.8 122.2 23.845 122.2 24.985ZM120.1 24.415C120.1 23.845 120 23.275 119.7 22.895C119.3 22.325 118.8 22.04 118 22.04C117.3 22.04 116.7 22.325 116.3 22.895C115.9 23.37 115.7 23.845 115.7 24.51L120.1 24.415ZM46.847 8.05201C46.847 7.70001 46.718 7.42002 46.46 7.21402C46.205 7.00402 45.846 6.90001 45.381 6.90001C44.993 6.90001 44.666 7.00801 44.402 7.22301C44.141 7.43601 44.01 7.70002 44.01 8.01502H43.136C43.136 7.66302 43.232 7.34801 43.423 7.06801C43.6278 6.78069 43.9082 6.55571 44.233 6.41802C44.594 6.25657 44.9856 6.17537 45.381 6.18001C46.121 6.18001 46.697 6.34702 47.107 6.68102C47.517 7.01202 47.722 7.47401 47.722 8.06601C47.722 8.37201 47.628 8.65101 47.44 8.90301C47.2345 9.16796 46.9627 9.37391 46.652 9.50001C47.432 9.76101 47.822 10.279 47.822 11.053C47.822 11.648 47.6 12.12 47.157 12.469C46.714 12.819 46.122 12.993 45.381 12.993C44.941 12.993 44.541 12.915 44.179 12.76C43.8426 12.6198 43.5523 12.388 43.341 12.091C43.141 11.803 43.041 11.46 43.041 11.061H43.915C43.915 11.411 44.053 11.703 44.329 11.936C44.605 12.166 44.956 12.282 45.381 12.282C45.858 12.282 46.237 12.172 46.52 11.95C46.6567 11.8486 46.7669 11.7158 46.8414 11.5628C46.9159 11.4098 46.9525 11.2411 46.948 11.071C46.948 10.294 46.467 9.89802 45.504 9.88302H44.684V9.16301H45.5C45.943 9.15301 46.278 9.05301 46.506 8.86301C46.734 8.67101 46.847 8.40101 46.847 8.05201ZM51.893 12.902C51.844 12.805 51.805 12.632 51.775 12.382C51.383 12.789 50.915 12.992 50.372 12.992C49.886 12.992 49.487 12.856 49.174 12.582C49.0244 12.4526 48.9053 12.2917 48.825 12.1109C48.7448 11.9301 48.7055 11.7338 48.71 11.536C48.71 11.022 48.904 10.625 49.293 10.342C49.684 10.057 50.233 9.91401 50.941 9.91401H51.761V9.52702C51.761 9.23302 51.673 8.99901 51.497 8.82601C51.321 8.65001 51.061 8.56202 50.718 8.56202C50.418 8.56202 50.166 8.63801 49.962 8.79001C49.759 8.94101 49.657 9.12501 49.657 9.34001H48.81C48.81 9.09501 48.897 8.85801 49.07 8.63001C49.246 8.40001 49.483 8.21701 49.78 8.08401C50.08 7.95001 50.41 7.88401 50.768 7.88401C51.336 7.88401 51.781 8.02601 52.102 8.31101C52.424 8.59401 52.592 8.98401 52.603 9.48101V11.749C52.603 12.202 52.661 12.562 52.776 12.829V12.902H51.893ZM50.495 12.259C50.759 12.259 51.01 12.191 51.246 12.055C51.468 11.934 51.6477 11.748 51.761 11.522V10.51H51.101C50.069 10.51 49.552 10.812 49.552 11.416C49.552 11.68 49.64 11.886 49.816 12.036C49.993 12.184 50.219 12.259 50.495 12.259ZM57.107 8.67101H54.835V12.901H53.988V7.97601H57.107V8.67201V8.67101ZM62.002 10.493C62.002 11.243 61.831 11.847 61.488 12.305C61.145 12.764 60.68 12.993 60.094 12.993C59.496 12.993 59.026 12.803 58.683 12.423V14.796H57.84V7.97501H58.61L58.65 8.52101C58.994 8.09601 59.47 7.88301 60.08 7.88301C60.673 7.88301 61.14 8.10702 61.483 8.55302C61.829 8.99902 62.003 9.62001 62.003 10.415L62.002 10.493ZM61.16 10.397C61.16 9.84202 61.041 9.40302 60.805 9.08102C60.568 8.75902 60.243 8.59801 59.83 8.59801C59.32 8.59801 58.938 8.82502 58.683 9.27702V11.631C58.935 12.081 59.32 12.305 59.839 12.305C60.243 12.305 60.563 12.145 60.8 11.827C61.04 11.505 61.16 11.028 61.16 10.397ZM64.634 11.667L65.782 7.97501H66.683L64.703 13.662C64.396 14.482 63.909 14.892 63.241 14.892L63.081 14.878L62.767 14.818V14.136L62.995 14.154C63.28 14.154 63.502 14.096 63.66 13.981C63.82 13.866 63.953 13.655 64.056 13.348L64.243 12.847L62.485 7.97501H63.405L64.635 11.668L64.634 11.667ZM70.149 9.32201C70.1528 9.21639 70.1307 9.11144 70.0847 9.01628C70.0387 8.92113 69.9702 8.83865 69.885 8.77601C69.709 8.63901 69.467 8.57101 69.161 8.57101C68.863 8.57101 68.614 8.64802 68.414 8.80302C68.216 8.95802 68.118 9.14002 68.118 9.35002H67.28C67.28 8.92202 67.46 8.57102 67.817 8.29802C68.176 8.02502 68.623 7.88801 69.161 7.88801C69.737 7.88801 70.187 8.01201 70.509 8.26101C70.83 8.50701 70.991 8.85901 70.991 9.31801C70.991 9.53901 70.924 9.74302 70.791 9.92802C70.6441 10.1238 70.4472 10.2765 70.221 10.37C70.795 10.564 71.082 10.947 71.082 11.517C71.082 11.97 70.908 12.327 70.559 12.592C70.209 12.856 69.743 12.988 69.161 12.988C68.593 12.988 68.124 12.85 67.754 12.574C67.386 12.294 67.203 11.918 67.203 11.444H68.04C68.04 11.684 68.147 11.891 68.36 12.064C68.575 12.234 68.842 12.319 69.16 12.319C69.482 12.319 69.742 12.244 69.94 12.096C70.0328 12.031 70.1083 11.9443 70.1597 11.8433C70.2111 11.7423 70.237 11.6303 70.235 11.517C70.235 11.241 70.152 11.044 69.985 10.925C69.821 10.804 69.565 10.743 69.215 10.743H68.373V10.033H69.288C69.862 10.018 70.148 9.78101 70.148 9.32301L70.149 9.32201ZM75.363 7.97501H76.205V12.902H75.363V9.30901L73.091 12.902H72.248V7.97501H73.091V11.572L75.363 7.97501ZM81.219 8.65801H79.566V12.902H78.723V8.65801H77.103V7.97501H81.219V8.65801ZM83.719 12.993C83.051 12.993 82.508 12.774 82.089 12.337C81.669 11.897 81.46 11.309 81.46 10.575V10.42C81.46 9.93101 81.553 9.49501 81.738 9.11301C81.926 8.72701 82.188 8.42702 82.521 8.21102C82.845 7.99624 83.2253 7.88212 83.614 7.88301C84.254 7.88301 84.753 8.09401 85.108 8.51601C85.463 8.93801 85.64 9.54202 85.64 10.329V10.679H82.303C82.315 11.165 82.456 11.559 82.726 11.859C82.999 12.156 83.346 12.305 83.764 12.305C84.062 12.305 84.314 12.245 84.52 12.123C84.7303 11.9988 84.9144 11.8347 85.062 11.64L85.577 12.041C85.164 12.675 84.545 12.993 83.719 12.993ZM83.614 8.57601C83.274 8.57601 82.989 8.70002 82.758 8.94902C82.528 9.19502 82.385 9.54102 82.33 9.98702H84.798V9.92302C84.774 9.49502 84.658 9.16501 84.452 8.93101C84.246 8.69401 83.966 8.57601 83.614 8.57601ZM89.01 12.902V7.97501H90.932C91.588 7.97501 92.09 8.09001 92.439 8.32101C92.791 8.54801 92.968 8.88401 92.968 9.32701C92.968 9.55501 92.899 9.76101 92.762 9.94701C92.626 10.128 92.424 10.268 92.157 10.365C92.454 10.435 92.693 10.572 92.872 10.775C93.054 10.978 93.145 11.221 93.145 11.504C93.145 11.956 92.978 12.302 92.645 12.542C92.313 12.782 91.845 12.902 91.237 12.902H89.01ZM89.853 10.739V12.223H91.246C91.598 12.223 91.861 12.158 92.034 12.027C92.1199 11.9642 92.189 11.8811 92.235 11.7851C92.2811 11.6892 92.3027 11.5833 92.298 11.477C92.298 10.985 91.937 10.739 91.214 10.739H89.853ZM89.853 10.065H90.941C91.731 10.065 92.125 9.83401 92.125 9.37201C92.125 8.91101 91.752 8.67201 91.005 8.65801H89.853V10.065Z" fill="white"/>
</g>
<defs>
<clipPath id="clip0_17_19">
<rect width="135" height="38" fill="white"/>
</clipPath>
</defs>
</svg>
