<svg width="110" height="28" viewBox="0 0 110 28" fill="none" xmlns="http://www.w3.org/2000/svg">
<path d="M17.2964 12.92C17.2964 9.88 19.8964 8.36 20.0964 8.265C18.5964 6.175 16.1964 5.89 15.3964 5.89C13.3964 5.7 11.4964 7.03 10.4964 7.03C9.49643 7.03 7.89643 5.89 6.29643 5.985C4.19643 5.985 2.19643 7.22 1.09643 9.025C-1.20357 12.73 0.496428 18.24 2.69643 21.28C3.79643 22.8 5.09643 24.415 6.69643 24.32C8.29643 24.225 8.89643 23.37 10.8964 23.37C12.7964 23.37 13.3964 24.32 15.0964 24.32C16.7964 24.32 17.8964 22.8 18.9964 21.375C20.2964 19.665 20.7964 18.05 20.7964 17.955C20.6964 17.765 17.3964 16.53 17.2964 12.92ZM14.0964 3.895C14.9964 2.85 15.5964 1.425 15.3964 0C14.0964 0.095 12.5964 0.855 11.5964 1.805C10.7964 2.66 10.0964 4.18 10.2964 5.51C11.7964 5.7 13.1964 4.94 14.0964 3.895ZM40.7964 24.035H38.4964L37.2964 20.33H32.9964L31.7964 24.035H29.5964L33.8964 11.4H36.4964L40.7964 24.035ZM36.9964 18.81L35.8964 15.485C35.7964 15.105 35.5964 14.345 35.1964 13.11C35.0964 13.68 34.8964 14.44 34.5964 15.485L33.3964 18.81H36.9964ZM51.8964 19.38C51.8964 20.9 51.4964 22.135 50.5964 23.085C49.7964 23.845 48.7964 24.32 47.6964 24.32C46.3964 24.32 45.4964 23.845 44.9964 22.99V27.835H42.8964V17.955C42.8964 17.005 42.8964 15.96 42.7964 14.915H44.6964L44.7964 16.34C45.4964 15.295 46.5964 14.725 47.9964 14.725C49.0964 14.725 50.0964 15.105 50.7964 15.96C51.4964 16.815 51.8964 17.955 51.8964 19.38ZM49.6964 19.475C49.6964 18.62 49.4964 17.86 49.0964 17.29C48.5964 16.72 47.9964 16.435 47.1964 16.435C46.6964 16.435 46.1964 16.625 45.7964 16.91C45.3964 17.29 45.0964 17.67 44.9964 18.24C44.8964 18.525 44.8964 18.715 44.8964 18.81V20.33C44.8964 20.995 45.0964 21.565 45.4964 22.04C45.8964 22.515 46.4964 22.705 47.1964 22.705C47.9964 22.705 48.5964 22.42 49.0964 21.85C49.4964 21.185 49.6964 20.425 49.6964 19.475ZM62.8964 19.38C62.8964 20.9 62.4964 22.135 61.5964 23.085C60.7964 23.845 59.7964 24.32 58.6964 24.32C57.3964 24.32 56.4964 23.845 55.9964 22.99V27.835H53.8964V17.955C53.8964 17.005 53.8964 15.96 53.7964 14.915H55.6964L55.7964 16.34C56.4964 15.295 57.5964 14.725 58.9964 14.725C60.0964 14.725 61.0964 15.105 61.7964 15.96C62.4964 16.815 62.8964 17.955 62.8964 19.38ZM60.6964 19.475C60.6964 18.62 60.4964 17.86 60.0964 17.29C59.5964 16.72 58.9964 16.435 58.1964 16.435C57.6964 16.435 57.1964 16.625 56.7964 16.91C56.3964 17.29 56.0964 17.67 55.9964 18.24C55.8964 18.525 55.8964 18.715 55.8964 18.81V20.33C55.8964 20.995 56.0964 21.565 56.4964 22.04C56.8964 22.515 57.4964 22.705 58.1964 22.705C58.9964 22.705 59.5964 22.42 60.0964 21.85C60.4964 21.185 60.6964 20.425 60.6964 19.475ZM75.1964 20.52C75.1964 21.565 74.7964 22.515 73.9964 23.18C73.0964 23.94 71.8964 24.32 70.3964 24.32C68.9964 24.32 67.7964 24.035 66.9964 23.56L67.4964 21.85C68.3964 22.42 69.4964 22.705 70.5964 22.705C71.3964 22.705 71.9964 22.515 72.4964 22.23C72.8964 21.85 73.1964 21.47 73.1964 20.805C73.1964 20.33 72.9964 19.855 72.5964 19.475C72.1964 19.095 71.5964 18.81 70.7964 18.525C68.4964 17.67 67.2964 16.53 67.2964 14.915C67.2964 13.87 67.6964 13.015 68.4964 12.35C69.2964 11.685 70.3964 11.4 71.7964 11.4C72.9964 11.4 73.9964 11.59 74.7964 11.97L74.1964 13.49C73.3964 13.11 72.5964 12.92 71.6964 12.92C70.8964 12.92 70.3964 13.11 69.8964 13.49C69.4964 13.775 69.3964 14.155 69.3964 14.63C69.3964 15.105 69.5964 15.58 69.9964 15.865C70.3964 16.15 70.9964 16.53 71.8964 16.815C72.9964 17.29 73.8964 17.765 74.3964 18.335C74.9964 18.905 75.1964 19.665 75.1964 20.52ZM82.2964 16.435H79.9964V20.9C79.9964 22.04 80.3964 22.61 81.1964 22.61C81.5964 22.61 81.8964 22.61 82.0964 22.515L82.1964 24.035C81.7964 24.225 81.1964 24.225 80.4964 24.225C79.6964 24.225 78.9964 23.94 78.4964 23.465C77.9964 22.99 77.7964 22.135 77.7964 20.995V16.435H76.3964V14.915H77.7964V13.205L79.8964 12.635V14.915H82.1964L82.2964 16.435ZM92.8964 19.38C92.8964 20.805 92.4964 21.945 91.5964 22.8C90.6964 23.75 89.4964 24.225 88.0964 24.225C86.6964 24.225 85.5964 23.75 84.6964 22.895C83.7964 22.04 83.3964 20.9 83.3964 19.57C83.3964 18.145 83.7964 17.005 84.6964 16.055C85.5964 15.2 86.6964 14.725 88.1964 14.725C89.5964 14.725 90.6964 15.2 91.5964 16.055C92.4964 16.91 92.8964 18.05 92.8964 19.38ZM90.6964 19.475C90.6964 18.62 90.4964 17.955 90.0964 17.29C89.6964 16.53 88.9964 16.245 88.1964 16.245C87.2964 16.245 86.6964 16.625 86.1964 17.29C85.7964 17.86 85.5964 18.62 85.5964 19.475C85.5964 20.33 85.7964 20.995 86.1964 21.66C86.6964 22.42 87.2964 22.705 88.0964 22.705C88.8964 22.705 89.5964 22.325 89.9964 21.565C90.4964 20.995 90.6964 20.33 90.6964 19.475ZM99.7964 16.72C99.5964 16.72 99.3964 16.625 99.0964 16.625C98.2964 16.625 97.7964 16.91 97.3964 17.48C96.9964 17.955 96.8964 18.525 96.8964 19.285V24.035H94.7964V17.765C94.7964 16.72 94.7964 15.77 94.6964 14.915H96.5964L96.6964 16.625H96.7964C96.9964 16.055 97.3964 15.58 97.8964 15.2C98.3964 14.915 98.8964 14.725 99.3964 14.725H99.8964L99.7964 16.72ZM109.396 19.095C109.396 19.475 109.396 19.76 109.296 20.045H102.896C102.896 20.9 103.196 21.66 103.796 22.135C104.296 22.515 104.996 22.8 105.896 22.8C106.796 22.8 107.696 22.61 108.496 22.325L108.796 23.75C107.896 24.13 106.796 24.32 105.596 24.32C104.096 24.32 102.896 23.94 102.096 23.085C101.296 22.23 100.796 21.185 100.796 19.76C100.796 18.43 101.196 17.195 101.996 16.34C102.796 15.39 103.896 14.915 105.396 14.915C106.796 14.915 107.796 15.39 108.496 16.34C109.096 16.91 109.396 17.955 109.396 19.095ZM107.296 18.525C107.296 17.955 107.196 17.385 106.896 17.005C106.496 16.435 105.996 16.15 105.196 16.15C104.496 16.15 103.896 16.435 103.496 17.005C103.096 17.48 102.896 17.955 102.896 18.62L107.296 18.525ZM34.0434 2.162C34.0434 1.81 33.9144 1.53 33.6564 1.324C33.4014 1.114 33.0424 1.01 32.5774 1.01C32.1894 1.01 31.8624 1.118 31.5984 1.333C31.3374 1.546 31.2064 1.81 31.2064 2.125H30.3324C30.3324 1.773 30.4284 1.458 30.6194 1.178C30.8242 0.890677 31.1046 0.665693 31.4294 0.528C31.7904 0.366556 32.182 0.285354 32.5774 0.29C33.3174 0.29 33.8934 0.457 34.3034 0.791C34.7134 1.122 34.9184 1.584 34.9184 2.176C34.9184 2.482 34.8244 2.761 34.6364 3.013C34.4309 3.27794 34.1591 3.48389 33.8484 3.61C34.6284 3.871 35.0184 4.389 35.0184 5.163C35.0184 5.758 34.7964 6.23 34.3534 6.579C33.9104 6.929 33.3184 7.103 32.5774 7.103C32.1374 7.103 31.7374 7.025 31.3754 6.87C31.039 6.72979 30.7487 6.498 30.5374 6.201C30.3374 5.913 30.2374 5.57 30.2374 5.171H31.1114C31.1114 5.521 31.2494 5.813 31.5254 6.046C31.8014 6.276 32.1524 6.392 32.5774 6.392C33.0544 6.392 33.4334 6.282 33.7164 6.06C33.8531 5.9586 33.9633 5.82579 34.0378 5.67279C34.1123 5.51979 34.1489 5.35111 34.1444 5.181C34.1444 4.404 33.6634 4.008 32.7004 3.993H31.8804V3.273H32.6964C33.1394 3.263 33.4744 3.163 33.7024 2.973C33.9304 2.781 34.0434 2.511 34.0434 2.162ZM39.0894 7.012C39.0404 6.915 39.0014 6.742 38.9714 6.492C38.5794 6.899 38.1114 7.102 37.5684 7.102C37.0824 7.102 36.6834 6.966 36.3704 6.692C36.2208 6.56258 36.1017 6.40171 36.0215 6.22089C35.9412 6.04007 35.902 5.84376 35.9064 5.646C35.9064 5.132 36.1004 4.735 36.4894 4.452C36.8804 4.167 37.4294 4.024 38.1374 4.024H38.9574V3.637C38.9574 3.343 38.8694 3.109 38.6934 2.936C38.5174 2.76 38.2574 2.672 37.9144 2.672C37.6144 2.672 37.3624 2.748 37.1584 2.9C36.9554 3.051 36.8534 3.235 36.8534 3.45H36.0064C36.0064 3.205 36.0934 2.968 36.2664 2.74C36.4424 2.51 36.6794 2.327 36.9764 2.194C37.2764 2.06 37.6064 1.994 37.9644 1.994C38.5324 1.994 38.9774 2.136 39.2984 2.421C39.6204 2.704 39.7884 3.094 39.7994 3.591V5.859C39.7994 6.312 39.8574 6.672 39.9724 6.939V7.012H39.0894ZM37.6914 6.369C37.9554 6.369 38.2064 6.301 38.4424 6.165C38.6644 6.04399 38.8441 5.85802 38.9574 5.632V4.62H38.2974C37.2654 4.62 36.7484 4.922 36.7484 5.526C36.7484 5.79 36.8364 5.996 37.0124 6.146C37.1894 6.294 37.4154 6.369 37.6914 6.369ZM44.3034 2.781H42.0314V7.011H41.1844V2.086H44.3034V2.782V2.781ZM49.1984 4.603C49.1984 5.353 49.0274 5.957 48.6844 6.415C48.3414 6.874 47.8764 7.103 47.2904 7.103C46.6924 7.103 46.2224 6.913 45.8794 6.533V8.906H45.0364V2.085H45.8064L45.8464 2.631C46.1904 2.206 46.6664 1.993 47.2764 1.993C47.8694 1.993 48.3364 2.217 48.6794 2.663C49.0254 3.109 49.1994 3.73 49.1994 4.525L49.1984 4.603ZM48.3564 4.507C48.3564 3.952 48.2374 3.513 48.0014 3.191C47.7644 2.869 47.4394 2.708 47.0264 2.708C46.5164 2.708 46.1344 2.935 45.8794 3.387V5.741C46.1314 6.191 46.5164 6.415 47.0354 6.415C47.4394 6.415 47.7594 6.255 47.9964 5.937C48.2364 5.615 48.3564 5.138 48.3564 4.507ZM51.8304 5.777L52.9784 2.085H53.8794L51.8994 7.772C51.5924 8.592 51.1054 9.002 50.4374 9.002L50.2774 8.988L49.9634 8.928V8.246L50.1914 8.264C50.4764 8.264 50.6984 8.206 50.8564 8.091C51.0164 7.976 51.1494 7.765 51.2524 7.458L51.4394 6.957L49.6814 2.085H50.6014L51.8314 5.778L51.8304 5.777ZM57.3454 3.432C57.3492 3.32637 57.3271 3.22142 57.2811 3.12627C57.2351 3.03111 57.1666 2.94863 57.0814 2.886C56.9054 2.749 56.6634 2.681 56.3574 2.681C56.0594 2.681 55.8104 2.758 55.6104 2.913C55.4124 3.068 55.3144 3.25 55.3144 3.46H54.4764C54.4764 3.032 54.6564 2.681 55.0134 2.408C55.3724 2.135 55.8194 1.998 56.3574 1.998C56.9334 1.998 57.3834 2.122 57.7054 2.371C58.0264 2.617 58.1874 2.969 58.1874 3.428C58.1874 3.649 58.1204 3.853 57.9874 4.038C57.8405 4.23381 57.6436 4.38648 57.4174 4.48C57.9914 4.674 58.2784 5.057 58.2784 5.627C58.2784 6.08 58.1044 6.437 57.7554 6.702C57.4054 6.966 56.9394 7.098 56.3574 7.098C55.7894 7.098 55.3204 6.96 54.9504 6.684C54.5824 6.404 54.3994 6.028 54.3994 5.554H55.2364C55.2364 5.794 55.3434 6.001 55.5564 6.174C55.7714 6.344 56.0384 6.429 56.3564 6.429C56.6784 6.429 56.9384 6.354 57.1364 6.206C57.2292 6.14102 57.3047 6.05424 57.3561 5.95328C57.4076 5.85233 57.4334 5.74029 57.4314 5.627C57.4314 5.351 57.3484 5.154 57.1814 5.035C57.0174 4.914 56.7614 4.853 56.4114 4.853H55.5694V4.143H56.4844C57.0584 4.128 57.3444 3.891 57.3444 3.433L57.3454 3.432ZM62.5594 2.085H63.4014V7.012H62.5594V3.419L60.2874 7.012H59.4444V2.085H60.2874V5.682L62.5594 2.085ZM68.4154 2.768H66.7624V7.012H65.9194V2.768H64.2994V2.085H68.4154V2.768ZM70.9154 7.103C70.2474 7.103 69.7044 6.884 69.2854 6.447C68.8654 6.007 68.6564 5.419 68.6564 4.685V4.53C68.6564 4.041 68.7494 3.605 68.9344 3.223C69.1224 2.837 69.3844 2.537 69.7174 2.321C70.0414 2.10623 70.4217 1.9921 70.8104 1.993C71.4504 1.993 71.9494 2.204 72.3044 2.626C72.6594 3.048 72.8364 3.652 72.8364 4.439V4.789H69.4994C69.5114 5.275 69.6524 5.669 69.9224 5.969C70.1954 6.266 70.5424 6.415 70.9604 6.415C71.2584 6.415 71.5104 6.355 71.7164 6.233C71.9268 6.10874 72.1109 5.94469 72.2584 5.75L72.7734 6.151C72.3604 6.785 71.7414 7.103 70.9154 7.103ZM70.8104 2.686C70.4704 2.686 70.1854 2.81 69.9544 3.059C69.7244 3.305 69.5814 3.651 69.5264 4.097H71.9944V4.033C71.9704 3.605 71.8544 3.275 71.6484 3.041C71.4424 2.804 71.1624 2.686 70.8104 2.686ZM76.2064 7.012V2.085H78.1284C78.7844 2.085 79.2864 2.2 79.6354 2.431C79.9874 2.658 80.1644 2.994 80.1644 3.437C80.1644 3.665 80.0954 3.871 79.9584 4.057C79.8224 4.238 79.6204 4.378 79.3534 4.475C79.6504 4.545 79.8894 4.682 80.0684 4.885C80.2504 5.088 80.3414 5.331 80.3414 5.614C80.3414 6.066 80.1744 6.412 79.8414 6.652C79.5094 6.892 79.0414 7.012 78.4334 7.012H76.2064ZM77.0494 4.849V6.333H78.4424C78.7944 6.333 79.0574 6.268 79.2304 6.137C79.3163 6.07417 79.3854 5.99108 79.4314 5.89513C79.4775 5.79918 79.4991 5.69333 79.4944 5.587C79.4944 5.095 79.1334 4.849 78.4104 4.849H77.0494ZM77.0494 4.175H78.1374C78.9274 4.175 79.3214 3.944 79.3214 3.482C79.3214 3.021 78.9484 2.782 78.2014 2.768H77.0494V4.175Z" fill="white"/>
</svg>
