<svg width="116" height="26" viewBox="0 0 116 26" fill="none" xmlns="http://www.w3.org/2000/svg">
<path d="M58.2 14.155C55.8 14.155 53.9 15.865 53.9 18.239C53.9 20.519 55.8 22.324 58.2 22.324C60.6 22.324 62.5 20.614 62.5 18.239C62.5 15.769 60.6 14.155 58.2 14.155ZM58.2 20.615C56.9 20.615 55.8 19.569 55.8 18.145C55.8 16.719 56.9 15.675 58.2 15.675C59.5 15.675 60.6 16.625 60.6 18.145C60.6 19.569 59.5 20.615 58.2 20.615ZM48.9 14.155C46.5 14.155 44.6 15.865 44.6 18.239C44.6 20.519 46.5 22.324 48.9 22.324C51.3 22.324 53.2 20.614 53.2 18.239C53.2 15.769 51.3 14.155 48.9 14.155ZM48.9 20.615C47.6 20.615 46.5 19.569 46.5 18.145C46.5 16.719 47.6 15.675 48.9 15.675C50.2 15.675 51.3 16.625 51.3 18.145C51.3 19.569 50.2 20.615 48.9 20.615ZM37.8 15.389V17.099H42.1C42 18.049 41.6 18.809 41.1 19.284C40.5 19.854 39.5 20.519 37.8 20.519C35.1 20.519 33.1 18.524 33.1 15.959C33.1 13.394 35.2 11.399 37.8 11.399C39.2 11.399 40.3 11.969 41.1 12.634L42.4 11.399C41.3 10.449 39.9 9.68901 37.9 9.68901C34.3 9.68901 31.2 12.539 31.2 15.959C31.2 19.379 34.3 22.229 37.9 22.229C39.9 22.229 41.3 21.659 42.5 20.424C43.7 19.284 44.1 17.669 44.1 16.434C44.1 16.054 44.1 15.674 44 15.389H37.8ZM83.2 16.719C82.8 15.769 81.8 14.154 79.6 14.154C77.4 14.154 75.6 15.769 75.6 18.239C75.6 20.519 77.4 22.324 79.8 22.324C81.7 22.324 82.9 21.184 83.3 20.519L81.9 19.569C81.4 20.234 80.8 20.709 79.8 20.709C78.8 20.709 78.2 20.329 77.7 19.474L83.4 17.194L83.2 16.719ZM77.4 18.049C77.4 16.529 78.7 15.674 79.6 15.674C80.3 15.674 81 16.054 81.2 16.529L77.4 18.049ZM72.7 21.945H74.6V10.069H72.7V21.945ZM69.7 15.01C69.2 14.535 68.4 14.06 67.4 14.06C65.3 14.06 63.3 15.865 63.3 18.145C63.3 20.425 65.2 22.135 67.4 22.135C68.4 22.135 69.2 21.66 69.6 21.185H69.7V21.755C69.7 23.275 68.8 24.13 67.4 24.13C66.3 24.13 65.5 23.37 65.3 22.705L63.7 23.37C64.2 24.415 65.4 25.745 67.5 25.745C69.7 25.745 71.5 24.51 71.5 21.565V14.345H69.7V15.01ZM67.5 20.615C66.2 20.615 65.1 19.57 65.1 18.145C65.1 16.72 66.2 15.675 67.5 15.675C68.8 15.675 69.8 16.72 69.8 18.145C69.8 19.57 68.8 20.615 67.5 20.615ZM91.9 10.07H87.4V21.945H89.3V17.48H91.9C94 17.48 96 16.055 96 13.775C96 11.495 94 10.07 91.9 10.07ZM92 15.77H89.3V11.685H92C93.4 11.685 94.2 12.825 94.2 13.68C94.1 14.725 93.3 15.77 92 15.77ZM103.5 14.06C102.1 14.06 100.7 14.63 100.2 15.865L101.9 16.53C102.3 15.865 102.9 15.675 103.6 15.675C104.6 15.675 105.5 16.245 105.6 17.195V17.29C105.3 17.1 104.5 16.815 103.7 16.815C101.9 16.815 100.1 17.765 100.1 19.475C100.1 21.09 101.6 22.135 103.2 22.135C104.5 22.135 105.1 21.565 105.6 20.995H105.7V21.945H107.5V17.385C107.3 15.295 105.6 14.06 103.5 14.06ZM103.3 20.615C102.7 20.615 101.8 20.33 101.8 19.57C101.8 18.62 102.9 18.335 103.8 18.335C104.6 18.335 105 18.525 105.5 18.715C105.3 19.855 104.3 20.615 103.3 20.615ZM113.8 14.345L111.7 19.475H111.6L109.4 14.345H107.4L110.7 21.565L108.8 25.555H110.7L115.8 14.345H113.8ZM97 21.945H98.9V10.069H97V21.945Z" fill="white"/>
<path d="M0.5 0.57C0.2 0.855 0 1.33 0 1.9V22.895C0 23.465 0.2 23.939 0.5 24.225L0.6 24.32L13 12.54V12.349L0.5 0.57Z" fill="url(#paint0_linear_13_20)"/>
<path d="M17.1 16.531L13 12.636V12.351L17.1 8.455L17.2 8.55L22.1 11.21C23.5 11.97 23.5 13.205 22.1 13.965L17.1 16.53V16.531Z" fill="url(#paint1_linear_13_20)"/>
<path d="M17.2 16.435L13 12.445L0.5 24.32C1 24.794 1.7 24.794 2.6 24.415L17.2 16.435Z" fill="url(#paint2_linear_13_20)"/>
<path d="M17.2 8.45501L2.6 0.57001C1.7 0.0950101 1 0.19001 0.5 0.66501L13 12.445L17.2 8.45501Z" fill="url(#paint3_linear_13_20)"/>
<path opacity="0.2" d="M17.1 16.34L2.6 24.13C1.8 24.605 1.1 24.51 0.6 24.13L0.5 24.225L0.6 24.32C1.1 24.7 1.8 24.795 2.6 24.32L17.1 16.34Z" fill="white"/>
<path opacity="0.12" d="M0.500006 24.13C0.200006 23.845 0.100006 23.37 0.100006 22.8V22.895C0.100006 23.465 0.300006 23.94 0.600006 24.225V24.13H0.500006ZM22.1 13.68L17.1 16.34L17.2 16.435L22.1 13.775C22.8 13.395 23.1 12.92 23.1 12.445C23.1 12.919 22.7 13.3 22.1 13.68Z" fill="white"/>
<path opacity="0.25" d="M2.60001 0.665006L22.1 11.21C22.7 11.59 23.1 11.97 23.1 12.445C23.1 11.97 22.8 11.495 22.1 11.115L2.60001 0.570006C1.20001 -0.189994 0.100006 0.475006 0.100006 1.99501V2.09001C0.100006 0.570006 1.20001 -0.0949944 2.60001 0.665006Z" fill="#23272E"/>
<path d="M32.2 7.03H31.5V5.13H32.1C32.6 4.75 32.9 3.99 32.9 2.945V0.0950003H36.9V5.13H37.6V7.03H36.9V5.795H32.3V7.03H32.2ZM33.6 2.945C33.6 3.8 33.4 4.56 33 5.13H36V0.855H33.5V2.945H33.6ZM43.5 5.035C42.9 5.605 42.2 5.89 41.3 5.89C40.4 5.89 39.7 5.605 39.1 5.035C38.5 4.465 38.2 3.8 38.2 2.945C38.2 2.09 38.5 1.425 39.1 0.855C39.7 0.285 40.4 0 41.3 0C42.2 0 42.9 0.285 43.5 0.855C44.1 1.425 44.4 2.09 44.4 2.945C44.4 3.8 44.1 4.465 43.5 5.035ZM39.7 4.56C40.1 4.94 40.7 5.225 41.3 5.225C41.9 5.225 42.5 5.035 42.9 4.56C43.3 4.18 43.6 3.61 43.6 2.945C43.6 2.28 43.4 1.71 42.9 1.33C42.5 0.95 41.9 0.665 41.3 0.665C40.7 0.665 40.1 0.855 39.7 1.33C39.3 1.71 39 2.28 39 2.945C39 3.61 39.2 4.18 39.7 4.56ZM48.3 5.89C47.4 5.89 46.7 5.605 46.1 5.035C45.5 4.465 45.2 3.8 45.2 2.945C45.2 2.09 45.5 1.425 46.1 0.855C46.7 0.285 47.4 0 48.3 0C49.2 0 49.9 0.285 50.5 0.95L50 1.425C49.6 0.95 49 0.665 48.3 0.665C47.6 0.665 47.1 0.855 46.6 1.33C46.1 1.71 45.9 2.28 45.9 2.945C45.9 3.61 46.1 4.18 46.6 4.56C47 4.94 47.6 5.225 48.3 5.225C49 5.225 49.6 4.94 50.1 4.37L50.6 4.845C50.3 5.13 50 5.415 49.6 5.605C49.2 5.795 48.8 5.89 48.3 5.89ZM53.801 5.795H53.001V0.76H51.301V0.0950003H55.401V0.76H53.701V5.795H53.801ZM60.7 0.0950003L58.4 4.94C58.1 5.605 57.6 5.985 57 5.985C56.8 5.985 56.6 5.985 56.4 5.89L56.6 5.225C56.7 5.32 56.9 5.32 57 5.32C57.2 5.32 57.3 5.32 57.4 5.225C57.5 5.13 57.6 5.035 57.7 4.845L57.9 4.37L55.9 0.19H56.8L58.3 3.42L59.7 0.19H60.7V0.0950003ZM61.6 5.795V0.0950003H65.9V5.795H65.1V0.76H62.3V5.795H61.6ZM67.301 5.795V0.0950003H68.101V2.565H71.101V0.0950003H71.901V5.795H71.101V3.23H68.101V5.795H67.301ZM78.2 5.035C77.6 5.605 76.9 5.89 76 5.89C75.1 5.89 74.4 5.605 73.8 5.035C73.2 4.465 72.9 3.8 72.9 2.945C72.9 2.09 73.2 1.425 73.8 0.855C74.4 0.285 75.1 0 76 0C76.9 0 77.6 0.285 78.2 0.855C78.8 1.425 79.1 2.09 79.1 2.945C79 3.8 78.7 4.465 78.2 5.035ZM74.3 4.56C74.7 4.94 75.3 5.225 75.9 5.225C76.5 5.225 77.1 5.035 77.5 4.56C77.9 4.18 78.2 3.61 78.2 2.945C78.2 2.28 78 1.71 77.5 1.33C77.1 0.95 76.5 0.665 75.9 0.665C75.3 0.665 74.7 0.855 74.3 1.33C73.9 1.71 73.6 2.28 73.6 2.945C73.6 3.61 73.9 4.18 74.3 4.56ZM82.2 5.795V0.0950003H84.4C84.9 0.0950003 85.3 0.285 85.6 0.57C85.9 0.855 86.1 1.235 86.1 1.71C86.1 1.995 86 2.185 85.9 2.47C85.8 2.66 85.6 2.85 85.3 2.945C85.6 3.04 85.8 3.23 86 3.42C86.2 3.61 86.3 3.895 86.3 4.275C86.3 4.75 86.1 5.13 85.8 5.415C85.4 5.7 85 5.89 84.5 5.89H82.2V5.795ZM83 2.565H84.4C84.7 2.565 84.9 2.47 85.1 2.28C85.3 2.09 85.4 1.9 85.4 1.71C85.4 1.52 85.3 1.33 85.1 1.14C85.0098 1.04614 84.9008 0.972279 84.7803 0.923184C84.6597 0.87409 84.5301 0.850861 84.4 0.855H83V2.565ZM83 5.13H84.6C84.9 5.13 85.1 5.035 85.3 4.845C85.5 4.655 85.6 4.465 85.6 4.18C85.5873 3.92846 85.4802 3.69098 85.3 3.515C85.2098 3.42114 85.1008 3.34728 84.9803 3.29818C84.8597 3.24909 84.7301 3.22586 84.6 3.23H83.1V5.13H83Z" fill="white"/>
<defs>
<linearGradient id="paint0_linear_13_20" x1="11.9" y1="1.719" x2="-4.022" y2="18.479" gradientUnits="userSpaceOnUse">
<stop stop-color="#00A0FF"/>
<stop offset="0.007" stop-color="#00A1FF"/>
<stop offset="0.26" stop-color="#00BEFF"/>
<stop offset="0.512" stop-color="#00D2FF"/>
<stop offset="0.76" stop-color="#00DFFF"/>
<stop offset="1" stop-color="#00E3FF"/>
</linearGradient>
<linearGradient id="paint1_linear_13_20" x1="23.935" y1="12.447" x2="-0.262" y2="12.447" gradientUnits="userSpaceOnUse">
<stop stop-color="#FFE000"/>
<stop offset="0.409" stop-color="#FFBD00"/>
<stop offset="0.775" stop-color="#FFA500"/>
<stop offset="1" stop-color="#FF9C00"/>
</linearGradient>
<linearGradient id="paint2_linear_13_20" x1="14.927" y1="14.626" x2="-6.665" y2="37.354" gradientUnits="userSpaceOnUse">
<stop stop-color="#FF3A44"/>
<stop offset="1" stop-color="#C31162"/>
</linearGradient>
<linearGradient id="paint3_linear_13_20" x1="-2.602" y1="-6.38799" x2="7.039" y2="3.76201" gradientUnits="userSpaceOnUse">
<stop stop-color="#32A071"/>
<stop offset="0.069" stop-color="#2DA771"/>
<stop offset="0.476" stop-color="#15CF74"/>
<stop offset="0.801" stop-color="#06E775"/>
<stop offset="1" stop-color="#00F076"/>
</linearGradient>
</defs>
</svg>
