<svg width="135" height="38" viewBox="0 0 135 38" fill="none" xmlns="http://www.w3.org/2000/svg">
<g clip-path="url(#clip0_17_23)">
<path d="M130 38H5C2.2 38 0 35.815 0 33.25V4.75C0 2.09 2.3 0 5 0H130C132.8 0 135 2.185 135 4.75V33.25C135 35.815 132.8 38 130 38Z" fill="black"/>
<path d="M68.1 20.71C65.7 20.71 63.8 22.42 63.8 24.794C63.8 27.074 65.7 28.879 68.1 28.879C70.5 28.879 72.4 27.169 72.4 24.794C72.4 22.324 70.5 20.71 68.1 20.71ZM68.1 27.17C66.8 27.17 65.7 26.124 65.7 24.7C65.7 23.274 66.8 22.23 68.1 22.23C69.4 22.23 70.5 23.18 70.5 24.7C70.5 26.124 69.4 27.17 68.1 27.17ZM58.8 20.71C56.4 20.71 54.5 22.42 54.5 24.794C54.5 27.074 56.4 28.879 58.8 28.879C61.2 28.879 63.1 27.169 63.1 24.794C63.1 22.324 61.2 20.71 58.8 20.71ZM58.8 27.17C57.5 27.17 56.4 26.124 56.4 24.7C56.4 23.274 57.5 22.23 58.8 22.23C60.1 22.23 61.2 23.18 61.2 24.7C61.2 26.124 60.1 27.17 58.8 27.17ZM47.7 21.944V23.654H52C51.9 24.604 51.5 25.364 51 25.839C50.4 26.409 49.4 27.074 47.7 27.074C45 27.074 43 25.079 43 22.514C43 19.949 45.1 17.954 47.7 17.954C49.1 17.954 50.2 18.524 51 19.189L52.3 17.954C51.2 17.004 49.8 16.244 47.8 16.244C44.2 16.244 41.1 19.094 41.1 22.514C41.1 25.934 44.2 28.784 47.8 28.784C49.8 28.784 51.2 28.214 52.4 26.979C53.6 25.839 54 24.224 54 22.989C54 22.609 54 22.229 53.9 21.944H47.7ZM93.1 23.274C92.7 22.324 91.7 20.709 89.5 20.709C87.3 20.709 85.5 22.324 85.5 24.794C85.5 27.074 87.3 28.879 89.7 28.879C91.6 28.879 92.8 27.739 93.2 27.074L91.8 26.124C91.3 26.789 90.7 27.264 89.7 27.264C88.7 27.264 88.1 26.884 87.6 26.029L93.3 23.749L93.1 23.274ZM87.3 24.604C87.3 23.084 88.6 22.229 89.5 22.229C90.2 22.229 90.9 22.609 91.1 23.084L87.3 24.604ZM82.6 28.5H84.5V16.624H82.6V28.5ZM79.6 21.565C79.1 21.09 78.3 20.615 77.3 20.615C75.2 20.615 73.2 22.42 73.2 24.7C73.2 26.98 75.1 28.69 77.3 28.69C78.3 28.69 79.1 28.215 79.5 27.74H79.6V28.31C79.6 29.83 78.7 30.685 77.3 30.685C76.2 30.685 75.4 29.925 75.2 29.26L73.6 29.925C74.1 30.97 75.3 32.3 77.4 32.3C79.6 32.3 81.4 31.065 81.4 28.12V20.9H79.6V21.565ZM77.4 27.17C76.1 27.17 75 26.125 75 24.7C75 23.275 76.1 22.23 77.4 22.23C78.7 22.23 79.7 23.275 79.7 24.7C79.7 26.125 78.7 27.17 77.4 27.17ZM101.8 16.625H97.3V28.5H99.2V24.035H101.8C103.9 24.035 105.9 22.61 105.9 20.33C105.9 18.05 103.9 16.625 101.8 16.625ZM101.9 22.325H99.2V18.24H101.9C103.3 18.24 104.1 19.38 104.1 20.235C104 21.28 103.2 22.325 101.9 22.325ZM113.4 20.615C112 20.615 110.6 21.185 110.1 22.42L111.8 23.085C112.2 22.42 112.8 22.23 113.5 22.23C114.5 22.23 115.4 22.8 115.5 23.75V23.845C115.2 23.655 114.4 23.37 113.6 23.37C111.8 23.37 110 24.32 110 26.03C110 27.645 111.5 28.69 113.1 28.69C114.4 28.69 115 28.12 115.5 27.55H115.6V28.5H117.4V23.94C117.2 21.85 115.5 20.615 113.4 20.615ZM113.2 27.17C112.6 27.17 111.7 26.885 111.7 26.125C111.7 25.175 112.8 24.89 113.7 24.89C114.5 24.89 114.9 25.08 115.4 25.27C115.2 26.41 114.2 27.17 113.2 27.17ZM123.7 20.9L121.6 26.03H121.5L119.3 20.9H117.3L120.6 28.12L118.7 32.11H120.6L125.7 20.9H123.7ZM106.9 28.5H108.8V16.624H106.9V28.5Z" fill="white"/>
<path d="M10.4 7.12499C10.1 7.40999 9.89999 7.88499 9.89999 8.45499V29.45C9.89999 30.02 10.1 30.494 10.4 30.78L10.5 30.875L22.9 19.095V18.904L10.4 7.12499Z" fill="url(#paint0_linear_17_23)"/>
<path d="M27 23.086L22.9 19.191V18.906L27 15.01L27.1 15.105L32 17.765C33.4 18.525 33.4 19.76 32 20.52L27 23.085V23.086Z" fill="url(#paint1_linear_17_23)"/>
<path d="M27.1 22.99L22.9 19L10.4 30.875C10.9 31.349 11.6 31.349 12.5 30.97L27.1 22.99Z" fill="url(#paint2_linear_17_23)"/>
<path d="M27.1 15.01L12.5 7.125C11.6 6.65 10.9 6.745 10.4 7.22L22.9 19L27.1 15.01Z" fill="url(#paint3_linear_17_23)"/>
<path opacity="0.2" d="M27 22.895L12.5 30.685C11.7 31.16 11 31.065 10.5 30.685L10.4 30.78L10.5 30.875C11 31.255 11.7 31.35 12.5 30.875L27 22.895Z" fill="white"/>
<path opacity="0.12" d="M10.4 30.685C10.1 30.4 10 29.925 10 29.355V29.45C10 30.02 10.2 30.495 10.5 30.78V30.685H10.4ZM32 20.235L27 22.895L27.1 22.99L32 20.33C32.7 19.95 33 19.475 33 19C33 19.474 32.6 19.855 32 20.235Z" fill="white"/>
<path opacity="0.25" d="M12.5 7.21998L32 17.765C32.6 18.145 33 18.525 33 19C33 18.525 32.7 18.05 32 17.67L12.5 7.12498C11.1 6.36498 10 7.02998 10 8.54998V8.64498C10 7.12498 11.1 6.45998 12.5 7.21998Z" fill="#23272E"/>
<path d="M42.1 13.585H41.4V11.685H42C42.5 11.305 42.8 10.545 42.8 9.49999V6.64999H46.8V11.685H47.5V13.585H46.8V12.35H42.2V13.585H42.1ZM43.5 9.49999C43.5 10.355 43.3 11.115 42.9 11.685H45.9V7.40999H43.4V9.49999H43.5ZM53.4 11.59C52.8 12.16 52.1 12.445 51.2 12.445C50.3 12.445 49.6 12.16 49 11.59C48.4 11.02 48.1 10.355 48.1 9.49999C48.1 8.64499 48.4 7.97999 49 7.40999C49.6 6.83999 50.3 6.55499 51.2 6.55499C52.1 6.55499 52.8 6.83999 53.4 7.40999C54 7.97999 54.3 8.64499 54.3 9.49999C54.3 10.355 54 11.02 53.4 11.59ZM49.6 11.115C50 11.495 50.6 11.78 51.2 11.78C51.8 11.78 52.4 11.59 52.8 11.115C53.2 10.735 53.5 10.165 53.5 9.49999C53.5 8.83499 53.3 8.26499 52.8 7.88499C52.4 7.50499 51.8 7.21999 51.2 7.21999C50.6 7.21999 50 7.40999 49.6 7.88499C49.2 8.26499 48.9 8.83499 48.9 9.49999C48.9 10.165 49.1 10.735 49.6 11.115ZM58.2 12.445C57.3 12.445 56.6 12.16 56 11.59C55.4 11.02 55.1 10.355 55.1 9.49999C55.1 8.64499 55.4 7.97999 56 7.40999C56.6 6.83999 57.3 6.55499 58.2 6.55499C59.1 6.55499 59.8 6.83999 60.4 7.50499L59.9 7.97999C59.5 7.50499 58.9 7.21999 58.2 7.21999C57.5 7.21999 57 7.40999 56.5 7.88499C56 8.26499 55.8 8.83499 55.8 9.49999C55.8 10.165 56 10.735 56.5 11.115C56.9 11.495 57.5 11.78 58.2 11.78C58.9 11.78 59.5 11.495 60 10.925L60.5 11.4C60.2 11.685 59.9 11.97 59.5 12.16C59.1 12.35 58.7 12.445 58.2 12.445ZM63.701 12.35H62.901V7.31499H61.201V6.64999H65.301V7.31499H63.601V12.35H63.701ZM70.6 6.64999L68.3 11.495C68 12.16 67.5 12.54 66.9 12.54C66.7 12.54 66.5 12.54 66.3 12.445L66.5 11.78C66.6 11.875 66.8 11.875 66.9 11.875C67.1 11.875 67.2 11.875 67.3 11.78C67.4 11.685 67.5 11.59 67.6 11.4L67.8 10.925L65.8 6.74499H66.7L68.2 9.97499L69.6 6.74499H70.6V6.64999ZM71.5 12.35V6.64999H75.8V12.35H75V7.31499H72.2V12.35H71.5ZM77.201 12.35V6.64999H78.001V9.11999H81.001V6.64999H81.801V12.35H81.001V9.78499H78.001V12.35H77.201ZM88.1 11.59C87.5 12.16 86.8 12.445 85.9 12.445C85 12.445 84.3 12.16 83.7 11.59C83.1 11.02 82.8 10.355 82.8 9.49999C82.8 8.64499 83.1 7.97999 83.7 7.40999C84.3 6.83999 85 6.55499 85.9 6.55499C86.8 6.55499 87.5 6.83999 88.1 7.40999C88.7 7.97999 89 8.64499 89 9.49999C88.9 10.355 88.6 11.02 88.1 11.59ZM84.2 11.115C84.6 11.495 85.2 11.78 85.8 11.78C86.4 11.78 87 11.59 87.4 11.115C87.8 10.735 88.1 10.165 88.1 9.49999C88.1 8.83499 87.9 8.26499 87.4 7.88499C87 7.50499 86.4 7.21999 85.8 7.21999C85.2 7.21999 84.6 7.40999 84.2 7.88499C83.8 8.26499 83.5 8.83499 83.5 9.49999C83.5 10.165 83.8 10.735 84.2 11.115ZM92.1 12.35V6.64999H94.3C94.8 6.64999 95.2 6.83999 95.5 7.12499C95.8 7.40999 96 7.78999 96 8.26499C96 8.54999 95.9 8.73999 95.8 9.02499C95.7 9.21499 95.5 9.40499 95.2 9.49999C95.5 9.59499 95.7 9.78499 95.9 9.97499C96.1 10.165 96.2 10.45 96.2 10.83C96.2 11.305 96 11.685 95.7 11.97C95.3 12.255 94.9 12.445 94.4 12.445H92.1V12.35ZM92.9 9.11999H94.3C94.6 9.11999 94.8 9.02499 95 8.83499C95.2 8.64499 95.3 8.45499 95.3 8.26499C95.3 8.07499 95.2 7.88499 95 7.69499C94.9098 7.60114 94.8008 7.52727 94.6803 7.47818C94.5597 7.42908 94.4301 7.40585 94.3 7.40999H92.9V9.11999ZM92.9 11.685H94.5C94.8 11.685 95 11.59 95.2 11.4C95.4 11.21 95.5 11.02 95.5 10.735C95.4873 10.4835 95.3802 10.246 95.2 10.07C95.1098 9.97614 95.0008 9.90227 94.8802 9.85318C94.7597 9.80408 94.6301 9.78085 94.5 9.78499H93V11.685H92.9Z" fill="white"/>
</g>
<defs>
<linearGradient id="paint0_linear_17_23" x1="21.8" y1="8.27399" x2="5.87799" y2="25.034" gradientUnits="userSpaceOnUse">
<stop stop-color="#00A0FF"/>
<stop offset="0.007" stop-color="#00A1FF"/>
<stop offset="0.26" stop-color="#00BEFF"/>
<stop offset="0.512" stop-color="#00D2FF"/>
<stop offset="0.76" stop-color="#00DFFF"/>
<stop offset="1" stop-color="#00E3FF"/>
</linearGradient>
<linearGradient id="paint1_linear_17_23" x1="33.835" y1="19.002" x2="9.63799" y2="19.002" gradientUnits="userSpaceOnUse">
<stop stop-color="#FFE000"/>
<stop offset="0.409" stop-color="#FFBD00"/>
<stop offset="0.775" stop-color="#FFA500"/>
<stop offset="1" stop-color="#FF9C00"/>
</linearGradient>
<linearGradient id="paint2_linear_17_23" x1="24.827" y1="21.181" x2="3.235" y2="43.909" gradientUnits="userSpaceOnUse">
<stop stop-color="#FF3A44"/>
<stop offset="1" stop-color="#C31162"/>
</linearGradient>
<linearGradient id="paint3_linear_17_23" x1="7.29799" y1="0.167003" x2="16.939" y2="10.317" gradientUnits="userSpaceOnUse">
<stop stop-color="#32A071"/>
<stop offset="0.069" stop-color="#2DA771"/>
<stop offset="0.476" stop-color="#15CF74"/>
<stop offset="0.801" stop-color="#06E775"/>
<stop offset="1" stop-color="#00F076"/>
</linearGradient>
<clipPath id="clip0_17_23">
<rect width="135" height="38" fill="white"/>
</clipPath>
</defs>
</svg>
