<svg width="40" height="40" viewBox="0 0 40 40" fill="none" xmlns="http://www.w3.org/2000/svg">
<rect x="0.399994" y="17.0999" width="32" height="24" rx="3.2" transform="rotate(-28.1559 0.399994 17.0999)" fill="#FDF4DF"/>
<path d="M19.5906 9.783V13.5522M19.5906 9.783C19.5906 9.03751 19.8116 8.30877 20.2258 7.68892C20.64 7.06908 21.2286 6.58596 21.9174 6.30068C22.6061 6.0154 23.364 5.94075 24.0951 6.08619C24.8263 6.23163 25.4979 6.59061 26.025 7.11775C26.5522 7.64488 26.9112 8.3165 27.0566 9.04766C27.202 9.77881 27.1274 10.5367 26.8421 11.2254C26.5568 11.9142 26.0737 12.5028 25.4539 12.917C24.834 13.3312 24.1053 13.5522 23.3598 13.5522H19.5906M19.5906 9.783C19.5906 9.03751 19.3695 8.30877 18.9553 7.68892C18.5412 7.06908 17.9525 6.58596 17.2637 6.30068C16.575 6.0154 15.8171 5.94075 15.086 6.08619C14.3548 6.23163 13.6832 6.59061 13.1561 7.11775C12.6289 7.64488 12.27 8.3165 12.1245 9.04766C11.9791 9.77881 12.0537 10.5367 12.339 11.2254C12.6243 11.9142 13.1074 12.5028 13.7273 12.917C14.3471 13.3312 15.0758 13.5522 15.8213 13.5522H19.5906" stroke="#F5C861" stroke-width="2" stroke-miterlimit="10" stroke-linecap="round"/>
<path d="M30.3598 13.5522H8.82133C7.63179 13.5522 6.66748 14.5165 6.66748 15.7061V18.9368C6.66748 20.1264 7.63179 21.0907 8.82133 21.0907H30.3598C31.5493 21.0907 32.5136 20.1264 32.5136 18.9368V15.7061C32.5136 14.5165 31.5493 13.5522 30.3598 13.5522Z" stroke="#F5C861" stroke-width="2" stroke-linecap="round" stroke-linejoin="round"/>
<path d="M30.3598 21.0907V30.783C30.3598 31.6399 30.0194 32.4616 29.4135 33.0675C28.8076 33.6734 27.9859 34.0138 27.129 34.0138H12.0521C11.1952 34.0138 10.3735 33.6734 9.76759 33.0675C9.1617 32.4616 8.82132 31.6399 8.82132 30.783V21.0907M19.5905 13.5522V34.0138" stroke="#F5C861" stroke-width="2" stroke-linecap="round" stroke-linejoin="round"/>
</svg>
