<svg width="40" height="40" viewBox="0 0 40 40" fill="none" xmlns="http://www.w3.org/2000/svg">
<rect y="26.5222" width="32" height="24" rx="3.2" transform="rotate(-55.9775 0 26.5222)" fill="#EEE7FF"/>
<path d="M5.66748 8.01376V29.7915C5.66748 30.6167 5.99526 31.408 6.5787 31.9914C7.16215 32.5749 7.95347 32.9027 8.77859 32.9027H30.5564C31.3815 32.9027 32.1728 32.5749 32.7563 31.9914C33.3397 31.408 33.6675 30.6167 33.6675 29.7915V14.236H27.4453" stroke="#AB87FF" stroke-width="2" stroke-linecap="round" stroke-linejoin="round"/>
<path d="M5.66748 8.01376H27.4453V29.7915C27.4453 30.6167 27.773 31.408 28.3565 31.9914C28.9399 32.5749 29.7313 32.9027 30.5564 32.9027M21.223 14.236H11.8897M21.223 20.4582H15.0008" stroke="#AB87FF" stroke-width="2" stroke-linecap="round" stroke-linejoin="round"/>
</svg>
