<svg width="40" height="40" viewBox="0 0 40 40" fill="none" xmlns="http://www.w3.org/2000/svg">
<rect x="13.7588" y="1.1851" width="32" height="24" rx="3.2" transform="rotate(34.4359 13.7588 1.1851)" fill="#D1F5EE"/>
<g clip-path="url(#clip0_17_2)">
<path d="M24.6833 5.06697L10 23.2143H18.5714L16.4614 34.8145C16.4574 34.8373 16.4584 34.8606 16.4644 34.883C16.4704 34.9053 16.4812 34.926 16.4961 34.9437C16.511 34.9614 16.5295 34.9756 16.5505 34.9853C16.5715 34.995 16.5943 35.0001 16.6174 35C16.642 35 16.6662 34.9942 16.6882 34.9832C16.7102 34.9721 16.7293 34.9561 16.744 34.9364L31.4286 16.7857H22.8571L24.9772 5.18415C24.9801 5.16104 24.978 5.13758 24.9711 5.11535C24.9642 5.09311 24.9526 5.0726 24.9371 5.05518C24.9217 5.03776 24.9027 5.02383 24.8814 5.01431C24.8602 5.0048 24.8371 4.99992 24.8138 5C24.7883 5.0001 24.7632 5.00622 24.7405 5.01786C24.7178 5.02949 24.6982 5.04632 24.6833 5.06697Z" stroke="#1ACFAA" stroke-width="2" stroke-linecap="round" stroke-linejoin="round"/>
</g>
<defs>
<clipPath id="clip0_17_2">
<rect width="32" height="32" fill="white" transform="translate(4.33252 3.98624)"/>
</clipPath>
</defs>
</svg>
