<svg width="32" height="32" viewBox="0 0 32 32" fill="none" xmlns="http://www.w3.org/2000/svg">
<path fill-rule="evenodd" clip-rule="evenodd" d="M13.2905 3.2108C12.7845 3.0012 12.2277 2.94636 11.6905 3.05321C11.1534 3.16006 10.6599 3.42381 10.2726 3.81109C9.88535 4.19838 9.62161 4.69181 9.51476 5.22898C9.40791 5.76616 9.46275 6.32296 9.67234 6.82897C9.88194 7.33498 10.2369 7.76748 10.6923 8.07176C11.1477 8.37605 11.6831 8.53846 12.2308 8.53846H15V5.76923C15 5.22153 14.8376 4.68613 14.5333 4.23073C14.229 3.77533 13.7965 3.42039 13.2905 3.2108ZM16 2.84716C15.4932 2.1934 14.8237 1.68107 14.0559 1.36304C13.1844 1.00207 12.2255 0.90762 11.3003 1.09164C10.3752 1.27566 9.52541 1.72989 8.85843 2.39688C8.19144 3.06387 7.73721 3.91366 7.55319 4.8388C7.36917 5.76394 7.46361 6.72288 7.82459 7.59434C7.96344 7.92957 8.13934 8.24607 8.34788 8.53847H5.23078C3.48896 8.53847 2.07693 9.95049 2.07693 11.6923V14.9231C2.07693 16.3154 2.97912 17.4969 4.23077 17.9151V26.7692C4.23077 27.8913 4.67651 28.9674 5.46994 29.7608C6.26336 30.5543 7.33947 31 8.46154 31H16H23.5385C24.6605 31 25.7366 30.5543 26.5301 29.7608C27.3235 28.9674 27.7692 27.8913 27.7692 26.7692V17.9151C29.0209 17.497 29.9231 16.3154 29.9231 14.9231V11.6923C29.9231 9.95049 28.5111 8.53847 26.7692 8.53847H23.6521C23.8607 8.24607 24.0366 7.92957 24.1754 7.59434C24.5364 6.72288 24.6309 5.76394 24.4468 4.8388C24.2628 3.91366 23.8086 3.06387 23.1416 2.39688C22.4746 1.72989 21.6248 1.27566 20.6997 1.09164C19.7745 0.90762 18.8156 1.00207 17.9441 1.36304C17.1763 1.68107 16.5068 2.1934 16 2.84716ZM25.7692 18.0769V26.7692C25.7692 27.3609 25.5342 27.9283 25.1159 28.3466C24.6975 28.765 24.1301 29 23.5385 29H17V18.0769H25.7692ZM17 16.0769H26.7692C27.4065 16.0769 27.9231 15.5603 27.9231 14.9231V11.6923C27.9231 11.0551 27.4065 10.5385 26.7692 10.5385H17V16.0769ZM15 10.5385V16.0769H5.23078C4.59353 16.0769 4.07693 15.5603 4.07693 14.9231V11.6923C4.07693 11.0551 4.59353 10.5385 5.23078 10.5385H15ZM15 18.0769V29H8.46154C7.86991 29 7.3025 28.765 6.88415 28.3466C6.4658 27.9283 6.23077 27.3609 6.23077 26.7692V18.0769H15ZM17 5.76923V8.53846H19.7692C20.3169 8.53846 20.8523 8.37605 21.3077 8.07176C21.7631 7.76748 22.1181 7.33498 22.3277 6.82897C22.5373 6.32296 22.5921 5.76616 22.4853 5.22898C22.3784 4.6918 22.1147 4.19837 21.7274 3.81109C21.3401 3.42381 20.8467 3.16006 20.3095 3.05321C19.7723 2.94636 19.2155 3.0012 18.7095 3.2108C18.2035 3.42039 17.771 3.77533 17.4667 4.23073C17.1624 4.68613 17 5.22153 17 5.76923Z" fill="#F5C861"/>
</svg>
