<svg width="32" height="32" viewBox="0 0 32 32" fill="none" xmlns="http://www.w3.org/2000/svg">
<path fill-rule="evenodd" clip-rule="evenodd" d="M2 2.55556H23.7778C24.3301 2.55556 24.7778 3.00327 24.7778 3.55556V8.77778H30C30.5523 8.77778 31 9.22549 31 9.77778V25.3333C31 26.4237 30.5669 27.4693 29.7959 28.2403C29.0249 29.0113 27.9792 29.4444 26.8889 29.4444H5.11111C4.02078 29.4444 2.9751 29.0113 2.20412 28.2403C1.43313 27.4693 1 26.4237 1 25.3333V3.55556C1 3.00327 1.44772 2.55556 2 2.55556ZM3 4.55556V25.3333C3 25.8932 3.22242 26.4302 3.61833 26.8261C4.01424 27.222 4.55121 27.4444 5.11111 27.4444H23.3612C22.9826 26.8117 22.7778 26.0831 22.7778 25.3333V9.77778V4.55556H3ZM24.7778 10.7778V25.3333C24.7778 25.8932 25.0002 26.4302 25.3961 26.8261C25.792 27.222 26.329 27.4444 26.8889 27.4444C27.4488 27.4444 27.9858 27.222 28.3817 26.8261C28.7776 26.4302 29 25.8932 29 25.3333V10.7778H24.7778ZM8.22222 8.77778C7.66994 8.77778 7.22222 9.22549 7.22222 9.77778C7.22222 10.3301 7.66994 10.7778 8.22222 10.7778H17.5556C18.1078 10.7778 18.5556 10.3301 18.5556 9.77778C18.5556 9.22549 18.1078 8.77778 17.5556 8.77778H8.22222ZM11.3333 15C10.781 15 10.3333 15.4477 10.3333 16C10.3333 16.5523 10.781 17 11.3333 17H17.5556C18.1078 17 18.5556 16.5523 18.5556 16C18.5556 15.4477 18.1078 15 17.5556 15H11.3333Z" fill="#AB87FF"/>
</svg>
