<svg width="32" height="32" viewBox="0 0 32 32" fill="none" xmlns="http://www.w3.org/2000/svg">
<path d="M19.969 1.06697L5.28571 19.2143H13.8571L11.7471 30.8145C11.7431 30.8373 11.7441 30.8606 11.7501 30.883C11.7561 30.9053 11.7669 30.926 11.7818 30.9437C11.7967 30.9614 11.8152 30.9756 11.8362 30.9853C11.8572 30.995 11.88 31.0001 11.9031 31C11.9277 31 11.952 30.9942 11.9739 30.9832C11.9959 30.9721 12.015 30.9561 12.0297 30.9364L26.7143 12.7857H18.1428L20.2629 1.18415C20.2658 1.16104 20.2637 1.13758 20.2568 1.11535C20.2499 1.09311 20.2383 1.0726 20.2228 1.05518C20.2074 1.03776 20.1884 1.02383 20.1671 1.01431C20.1459 1.0048 20.1228 0.999921 20.0995 1C20.074 1.0001 20.0489 1.00622 20.0262 1.01786C20.0035 1.02949 19.9839 1.04632 19.969 1.06697Z" stroke="#1ACFAA" stroke-width="2" stroke-linecap="round" stroke-linejoin="round"/>
</svg>
